<?xml version="1.0" standalone="no"?>
<!DOCTYPE svg PUBLIC "-//W3C//DTD SVG 1.1//EN" "http://www.w3.org/Graphics/SVG/1.1/DTD/svg11.dtd" >
<svg xmlns="http://www.w3.org/2000/svg">
<metadata>Generated by IcoMoon</metadata>
<defs>
<font id="icomoon" horiz-adv-x="1024">
<font-face units-per-em="1024" ascent="960" descent="-64" />
<missing-glyph horiz-adv-x="1024" />
<glyph unicode="&#x20;" horiz-adv-x="512" d="" />
<glyph unicode="&#xe900;" glyph-name="account-box-multiple" d="M102.4 755.2h-102.4v-716.8c0-56.544 45.856-102.4 102.4-102.4v0h716.8v102.4h-716.8v716.8zM844.8 332.8c0 76.8-153.6 115.2-230.4 115.2s-230.4-38.4-230.4-115.2v-38.4h460.8zM614.4 537.6c63.584 0.096 115.104 51.616 115.2 115.2v0c-0.096 63.584-51.616 115.104-115.2 115.2v0c-63.584-0.096-115.104-51.616-115.2-115.2v0c0.096-63.584 51.616-115.104 115.2-115.2v0zM921.6 960h-614.4c-56.32 0-102.4-46.080-102.4-102.4v-614.4c0-56.544 45.856-102.4 102.4-102.4v0h614.4c56.832 0 102.4 45.568 102.4 102.4v614.4c0 56.544-45.856 102.4-102.4 102.4v0zM921.6 243.2h-614.4v614.4h614.4v-614.4z" />
<glyph unicode="&#xe901;" glyph-name="account-circle" d="M512 960c-282.752 0-512-229.248-512-512s229.216-512 512-512 512 229.216 512 512c0 282.784-229.216 512-512 512v0zM259.584 126.464c22.016 46.080 156.16 91.136 252.416 91.136s230.4-45.056 252.416-91.136c-68.384-54.88-156.224-88.064-251.84-88.064-0.192 0-0.416 0-0.608 0h0.032c-0.16 0-0.384 0-0.576 0-95.584 0-183.424 33.184-252.64 88.672l0.8-0.608zM837.632 200.704c-73.216 89.088-250.88 119.296-325.632 119.296s-252.416-30.208-325.632-119.296c-52.384 67.68-83.968 153.76-83.968 247.2 0 0.032 0 0.064 0 0.096v0c0 225.792 183.808 409.6 409.6 409.6s409.6-183.808 409.6-409.6c0-0.032 0-0.064 0-0.096 0-93.44-31.584-179.52-84.672-248.128l0.704 0.928zM512 755.2c-0.128 0-0.288 0-0.48 0-98.72 0-178.72-80.032-178.72-178.72 0-0.16 0-0.32 0-0.48v0.032c0-0.128 0-0.288 0-0.48 0-98.72 80.032-178.72 178.72-178.72 0.16 0 0.32 0 0.48 0h-0.032c0.128 0 0.288 0 0.48 0 98.72 0 178.72 80.032 178.72 178.72 0 0.16 0 0.32 0 0.48v-0.032c0 0.128 0 0.288 0 0.48 0 98.72-80.032 178.72-178.72 178.72-0.16 0-0.32 0-0.48 0h0.032zM512 499.2c-42.4 0-76.8 34.4-76.8 76.8s34.4 76.8 76.8 76.8v0c42.4 0 76.8-34.4 76.8-76.8s-34.4-76.8-76.8-76.8v0z" />
<glyph unicode="&#xe902;" glyph-name="bell" d="M746.112 192h-468.256v332.8c0 128 104.064 230.4 234.112 230.4s234.112-102.4 234.112-230.4zM850.144 243.2v281.6c0 157.184-111.328 288.768-260.128 323.584v34.816c0 42.4-34.912 76.8-78.016 76.8s-78.016-34.4-78.016-76.8v-34.816c-149.312-34.816-260.128-166.4-260.128-323.584v-281.6l-104.032-102.4v-51.2h884.352v51.2zM512-64c57.472 0 104.032 45.856 104.032 102.4h-208.064c0-56.544 46.56-102.4 104.032-102.4z" />
<glyph unicode="&#xe903;" glyph-name="briefcase-account" d="M921.6 730.944c29.696 0 53.76-10.272 72.704-30.336 19.456-21.088 29.696-44.224 29.696-72.576v-565.856c0-28.288-10.24-51.488-29.696-72.576-18.944-20-43.008-30.336-72.704-30.336h-819.2c-29.696 0-53.76 10.272-72.704 30.336-19.456 21.088-29.696 44.224-29.696 72.576v565.856c0 28.288 10.24 51.488 29.696 72.576 18.944 20 43.008 30.336 72.704 30.336h204.8v102.88c0 29.888 10.24 54.048 29.696 73.088 18.944 19.552 43.008 29.824 72.704 29.824h204.8c29.696 0 53.76-10.272 72.704-29.824 19.456-19.040 29.696-43.2 29.696-73.088v-102.88h204.8zM102.4 628.096v-565.952h819.2v565.888h-819.2zM614.4 730.912v102.944h-204.8v-102.88h204.8zM512 576.608c63.648-0.128 115.2-51.776 115.2-115.424 0-0.128 0-0.224 0-0.352v0.032c0-0.096 0-0.256 0-0.384 0-63.648-51.552-115.264-115.2-115.328v0c-63.648 0.128-115.2 51.776-115.2 115.424 0 0.128 0 0.224 0 0.352v-0.032c0 0.096 0 0.256 0 0.384 0 63.648 51.552 115.264 115.2 115.328v0zM742.4 113.632h-460.8v57.632c0 64.288 102.4 115.744 230.4 115.744s230.4-51.488 230.4-115.744v-57.632z" />
<glyph unicode="&#xe904;" glyph-name="calendar" d="M860.416 857.6h-49.728v102.4h-99.648v-102.4h-398.080v102.4h-99.648v-102.4h-49.728c-55.296 0-99.584-46.080-99.584-102.4v-716.8c0-56.576 44.544-102.4 99.584-102.4h696.832c55.040 0 99.584 45.824 99.584 102.4v716.8c0 56.576-44.544 102.4-99.584 102.4zM860.416 38.4h-696.832v512h696.832v-512zM860.416 652.8h-696.832v102.4h696.832v-102.4z" />
<glyph unicode="&#xe905;" glyph-name="card-account-details" d="M938.688 843.616h-853.376c-46.496-1.76-83.584-40.032-85.312-87.936v-615.392c1.728-47.936 38.816-86.144 85.312-87.936h853.376c46.496 1.76 83.584 40.032 85.312 87.936v615.328c-1.728 47.936-38.816 86.144-85.312 87.936zM938.688 140.224h-853.376v615.424h853.376v-615.328zM597.312 228.224v54.912c0 72.992-142.464 109.888-213.312 109.888s-213.312-36.896-213.312-109.856v-54.976h426.624zM384 667.776c-58.912 0-106.688-49.184-106.688-109.856 0-60.8 47.744-109.952 106.688-109.952 28.288 0 55.392 11.584 75.392 32.224 20 20.576 31.264 48.544 31.264 77.728 0 29.088-11.264 57.056-31.264 77.696-19.072 19.776-45.792 32.096-75.392 32.16v0zM597.312 667.776v-43.936h256v43.936h-256zM597.312 579.84v-43.936h256v43.936h-256zM597.312 491.904v-43.936h170.688v43.936h-170.688z" />
<glyph unicode="&#xe906;" glyph-name="cash-multiple" d="M186.176 820.352h837.824v-558.56h-837.824v558.56zM605.088 680.736c77.12 0 139.648-62.528 139.648-139.648s-62.528-139.648-139.648-139.648v0c-77.12 0-139.648 62.528-139.648 139.648s62.528 139.648 139.648 139.648v0zM372.352 727.264c0-51.424-41.664-93.088-93.088-93.088v0-186.176c51.424 0 93.088-41.664 93.088-93.088v0h465.44c0 51.424 41.664 93.088 93.088 93.088v0 186.176c-51.424 0-93.088 41.664-93.088 93.088v0h-465.44zM0 634.176h93.088v-465.44h744.736v-93.088h-837.824v558.56z" />
<glyph unicode="&#xe907;" glyph-name="check" d="M1024 760.448l-702.176-708.096-321.824 324.512 82.528 83.232 239.296-240.736 619.648 624.256z" />
<glyph unicode="&#xe908;" glyph-name="chevron-down" d="M120.32 789.344l391.68-422.304 391.68 422.304 120.32-130.656-512-552.032-512 552.032z" />
<glyph unicode="&#xe909;" glyph-name="chevron-left" d="M853.344 57.184l-421.984 390.816 421.984 391.68-129.888 120.32-552.8-512 552.8-512z" />
<glyph unicode="&#xe90a;" glyph-name="chevron-right" d="M170.656 57.184l421.984 390.816-421.984 391.68 129.888 120.32 552.8-512-552.8-512z" />
<glyph unicode="&#xe90b;" glyph-name="chevron-up" d="M903.68 106.656l-391.68 422.304-391.68-422.304-120.32 130.656 512 552.032 512-552.032z" />
<glyph unicode="&#xe90c;" glyph-name="close" d="M1024 856.864l-103.136 103.136-408.864-408.864-408.864 408.864-103.136-103.136 408.864-408.864-408.864-408.864 103.136-103.136 408.864 408.864 408.864-408.864 103.136 103.136-408.864 408.864z" />
<glyph unicode="&#xe90d;" glyph-name="content-paste" d="M837.824 29.088h-651.648v744.736h93.088v-139.648h465.44v139.648h93.088zM512 866.912c25.696 0 46.56-20.832 46.56-46.56s-20.832-46.56-46.56-46.56v0c-25.696 0-46.56 20.832-46.56 46.56s20.832 46.56 46.56 46.56v0zM837.824 866.912h-194.56c-19.552 53.984-70.752 93.088-131.264 93.088s-111.712-39.104-131.264-93.088h-194.56c-51.424 0-93.088-41.664-93.088-93.088v0-744.736c0-51.424 41.664-93.088 93.088-93.088v0h651.648c51.424 0 93.088 41.664 93.088 93.088v0 744.736c0 51.424-41.664 93.088-93.088 93.088v0z" />
<glyph unicode="&#xe90e;" glyph-name="delete" d="M172.864 49.76c0-0.096 0-0.224 0-0.32 0-62.528 50.56-113.216 113.024-113.44h452.16c62.496 0.224 113.056 50.912 113.056 113.44 0 0.128 0 0.224 0 0.352v-0.032 682.688h-678.272v-682.688zM285.92 618.688h452.128v-568.928h-452.128v568.928zM709.824 903.072l-56.512 56.928h-282.624l-56.512-56.864h-197.824v-113.792h791.264v113.792h-197.824z" />
<glyph unicode="&#xe90f;" glyph-name="download" d="M0 369.984h102.4v-260.128h819.2v260.128h102.4v-260.128c0-57.728-45.568-104.032-102.4-104.032h-819.2c-56.32 0-102.4 46.304-102.4 104.032v260.128zM512 213.92l284.16 284.032-72.704 73.344-160.256-162.304v481.184h-102.4v-481.184l-159.744 162.304-72.704-73.856 283.648-283.552z" />
<glyph unicode="&#xe910;" glyph-name="eye-circle" d="M512-64c-282.784 0-512 229.216-512 512s229.216 512 512 512c282.784 0 512-229.216 512-512v0c0-282.752-229.248-512-512-512zM512 38.4c226.208 0 409.6 183.392 409.6 409.6s-183.392 409.6-409.6 409.6v0c-226.208 0-409.6-183.392-409.6-409.6s183.392-409.6 409.6-409.6v0zM512 499.2c28.288 0 51.2-22.912 51.2-51.2s-22.912-51.2-51.2-51.2v0c-28.288 0-51.2 22.912-51.2 51.2s22.912 51.2 51.2 51.2v0zM512 652.8c0.288 0 0.608 0 0.928 0 137.344 0 255.2-83.552 305.44-202.624l0.832-2.176c-70.656-169.472-265.728-249.856-435.2-179.2-81.248 34.592-144.608 97.952-178.368 177.024l-0.832 2.176c51.072 121.248 168.928 204.8 306.272 204.8 0.32 0 0.672 0 0.992 0h-0.064zM512 576c-70.688 0-128-57.312-128-128s57.312-128 128-128v0c70.688 0 128 57.312 128 128s-57.312 128-128 128v0z" />
<glyph unicode="&#xe911;" glyph-name="file-chart" d="M616.736 960h-418.912c-57.568 0-104.736-46.080-104.736-102.4v-819.2c0-56.32 47.136-102.4 104.736-102.4h628.352c57.632 0 104.736 46.080 104.736 102.4v614.4l-314.176 307.2zM826.176 38.4h-628.352v819.2h366.56v-256h261.824v-563.2zM354.912 396.8v-307.2h-104.736v307.2h104.736zM669.088 294.4v-204.8h104.736v204.8h-104.736zM459.648 499.2v-409.6h104.736v409.6h-104.736z" />
<glyph unicode="&#xe912;" glyph-name="finance" d="M161.696 232.416l-161.696-158.432v454.88h161.696zM431.2 331.584l-84.704 72.192-76.992-71.136v411.744h161.696zM700.704 421.056l-161.696-161.696v700.64h161.696zM852.096 431.296l-97.504 97.568h269.408v-269.504l-96.48 96.48-388.576-385.344-187.008 162.784-203.744-197.248h-148.192l348.704 341.696 190.24-160.576z" />
<glyph unicode="&#xe913;" d="M128 960h768c70.688 0 128-57.312 128-128v-768c0-70.688-57.312-128-128-128h-768c-70.688 0-128 57.312-128 128v768c0 70.688 57.312 128 128 128z" />
<glyph unicode="&#xe914;" d="M640 301.44l-158.24 146.56 158.24 146.88-48.704 45.12-207.296-192 207.296-192z" />
<glyph unicode="&#xe915;" d="M128 960h768c70.688 0 128-57.312 128-128v-768c0-70.688-57.312-128-128-128h-768c-70.688 0-128 57.312-128 128v768c0 70.688 57.312 128 128 128z" />
<glyph unicode="&#xe916;" d="M384 301.44l158.24 146.56-158.24 146.88 48.704 45.12 207.296-192-207.296-192z" />
<glyph unicode="&#xe917;" glyph-name="image" d="M614.4 960l307.2-307.2v-614.4c0-56.544-45.856-102.4-102.4-102.4v0h-614.4c-56.544 0-102.4 45.856-102.4 102.4v0 819.2c0 56.544 45.856 102.4 102.4 102.4v0h409.6zM819.2 38.4v563.2h-256v256h-358.4v-819.2h614.4zM768 396.8v-307.2h-512l256 256 102.4-102.4zM409.6 524.8c0-42.4-34.4-76.8-76.8-76.8s-76.8 34.4-76.8 76.8v0c0 42.4 34.4 76.8 76.8 76.8s76.8-34.4 76.8-76.8v0z" />
<glyph unicode="&#xe918;" glyph-name="logout" d="M630.336 243.776l147.328 147.328h-550.080v113.792h550.080l-147.328 147.328 80.768 80.224 284.48-284.448-284.48-284.448-80.768 80.224zM910.24 960c62.816 0 113.76-50.944 113.76-113.76v0-265.696l-113.76 113.792v151.904h-796.48v-796.48h796.48v151.904l113.76 113.792v-265.696c0-62.816-50.944-113.76-113.76-113.76v0h-796.48c-63.136 0-113.76 51.2-113.76 113.76v796.48c0 0.096 0 0.256 0 0.384 0 62.624 50.752 113.376 113.376 113.376 0.128 0 0.256 0 0.384 0h796.448z" />
<glyph unicode="&#xe919;" glyph-name="note-edit" d="M774.656 473.728l64.512 64.8c22.528 22.656 51.2 35.008 82.432 38.080v51.424l-307.2 308.704h-512c-56.832 0-102.4-45.792-102.4-102.88v-720.256c0-56.608 45.568-102.88 102.4-102.88h307.2v96.16l6.656 6.688h-313.856v720.192h358.4v-360.064h313.856zM563.2 859.616l281.6-283.008h-281.6v283.008zM825.856 379.584l104.448-104.96-313.856-315.36h-104.448v104.96l313.856 315.36zM1016.32 361.056l-50.176-50.4-104.448 104.96 50.176 50.4c4.704 4.768 11.232 7.712 18.432 7.712s13.728-2.944 18.432-7.712v0l67.584-67.968c10.24-10.24 10.24-27.232 0-36.992z" />
<glyph unicode="&#xe91a;" glyph-name="note" d="M682.688 960h-568.928c-62.816 0-113.76-50.944-113.76-113.76v0-796.48c0-62.816 50.944-113.76 113.76-113.76v0h796.48c62.816 0 113.76 50.944 113.76 113.76v0 568.928l-341.312 341.312zM910.24 49.76h-796.48v796.48h512v-284.48h284.48zM796.448 334.24h-568.832v113.76h568.8zM625.696 163.552h-398.112v113.76h398.208z" />
<glyph unicode="&#xe91b;" glyph-name="order" d="M204.8 913.44c-113.152 0-204.8-92.576-204.8-206.848 0-114.304 91.648-206.944 204.8-206.944s204.8 92.64 204.8 206.944c0 114.208-91.648 206.848-204.8 206.848zM204.8 603.136c-56.32 0-102.4 46.56-102.4 103.456 0 56.864 46.080 103.424 102.4 103.424s102.4-46.56 102.4-103.424c0-56.928-46.080-103.456-102.4-103.456zM204.8 396.288c-113.152 0-204.8-92.576-204.8-206.88 0-114.208 91.648-206.848 204.8-206.848s204.8 92.576 204.8 206.848c0 114.304-91.648 206.88-204.8 206.88zM512 810.016h512v-103.424h-512v103.424zM512 85.984v103.424h512v-103.424h-512zM512 499.744h512v-103.456h-512v103.392z" />
<glyph unicode="&#xe91c;" glyph-name="plus-circle" d="M512 38.4c-225.792 0-409.6 183.808-409.6 409.6s183.808 409.6 409.6 409.6c225.792 0 409.6-183.808 409.6-409.6s-183.808-409.6-409.6-409.6zM512 960c-282.752 0-512-229.248-512-512s229.216-512 512-512 512 229.216 512 512c0 282.784-229.216 512-512 512v0zM563.2 704h-102.4v-204.8h-204.8v-102.4h204.8v-204.8h102.4v204.8h204.8v102.4h-204.8v204.8z" />
<glyph unicode="&#xe91d;" glyph-name="plus" d="M1024 533.344h-426.656v426.656h-170.656v-426.656h-426.656v-170.656h426.656v-426.656h170.656v426.656h426.656z" />
<glyph unicode="&#xe91e;" glyph-name="rectangle" d="M128 960h768c70.688 0 128-57.312 128-128v-768c0-70.688-57.312-128-128-128h-768c-70.688 0-128 57.312-128 128v768c0 70.688 57.312 128 128 128z" />
<glyph unicode="&#xe91f;" glyph-name="sort-down" horiz-adv-x="640" d="M623.8 289.8l-264.8-273.6c-10.8-10.8-24.8-16.2-39-16.2-14.11 0-28.24 5.404-38.94 16.218l-264.8 273.6c-34.718 34.582-10.15 94.182 39.060 94.182h529.4c49.080 0 73.68-59.6 39.080-94.2z" />
<glyph unicode="&#xe920;" glyph-name="sort" horiz-adv-x="640" d="M55.32 512h529.4c49.2 0 73.78 59.56 39.080 94.24l-264.6 273.6c-10.812 10.812-24.94 16.214-39.060 16.214-14.11 0-28.18-5.402-38.9-16.214l-265.002-273.64c-34.696-34.6-10.128-94.2 39.082-94.2zM584.6 384h-529.28c-49.2 0-73.78-59.54-39.080-94.24l265-273.6c10.56-10.76 22.96-16.16 38.76-16.16 14.106 0 28.24 5.406 39.060 16.218l264.6 273.6c34.74 34.582 10.14 94.182-39.060 94.182z" />
<glyph unicode="&#xe921;" glyph-name="sort-up" horiz-adv-x="640" d="M55.32 512h529.4c49.2 0 73.78 59.56 39.080 94.24l-264.6 273.6c-10.812 10.812-24.94 16.214-39.060 16.214-14.11 0-28.18-5.402-38.9-16.214l-265.002-273.64c-34.696-34.6-10.128-94.2 39.082-94.2z" />
<glyph unicode="&#xe922;" glyph-name="supervisor" d="M537.6 550.4c0 84.992-68.608 153.6-153.6 153.6-84.736-0.256-153.344-68.864-153.6-153.568v-0.032c0-83.968 69.632-153.6 153.6-153.6 84.736 0.256 153.344 68.864 153.6 153.568v0.032zM384 499.2c-27.648 0-51.2 23.552-51.2 51.2 0 28.672 23.552 51.2 51.2 51.2 28.672 0 51.2-22.528 51.2-51.2 0-27.648-22.528-51.2-51.2-51.2zM716.8 396.8c57.344 0 102.4 46.080 102.4 102.4 0 57.344-45.056 102.4-102.4 102.4-56.32 0-102.4-45.056-102.4-102.4 0-56.32 46.080-102.4 102.4-102.4zM512 960c-281.6 0-512-230.4-512-512s230.4-512 512-512 512 230.4 512 512-230.4 512-512 512zM197.12 186.368c34.816 27.648 116.224 56.832 186.88 56.832h12.288c15.552 37.344 38.144 68.96 66.336 94.528l0.224 0.192c-23.584 4.64-50.816 7.424-78.624 7.68h-0.224c-66.048 0-173.056-22.528-241.664-72.704-25.184 51.136-39.936 111.296-39.936 174.944 0 0.064 0 0.128 0 0.192v0c0 226.304 183.808 409.6 409.6 409.6s409.6-183.296 409.6-409.6c-0.064-62.464-14.24-121.632-39.456-174.496l1.056 2.464c-51.2 30.208-120.832 44.032-166.4 44.032-76.8 0-230.4-40.96-230.4-137.728v-142.336c-116.64 6.976-219.168 62.176-288.736 145.76l-0.544 0.672z" />
</font>
</defs>
</svg>
