<?xml version="1.0" encoding="UTF-8"?>
<svg width="24px" height="21px" viewBox="0 0 24 21" version="1.1" xmlns="http://www.w3.org/2000/svg" xmlns:xlink="http://www.w3.org/1999/xlink">
    <title>newspaper-regular</title>
    <g id="Symbols" stroke="none" stroke-width="1" fill="none" fill-rule="evenodd">
        <g id="Icons-/-24px-/-news" transform="translate(0.000000, -2.000000)" fill="#DB9800" fill-rule="nonzero">
            <g id="newspaper-regular" transform="translate(0.000000, 2.000000)">
                <path d="M21.375,0 L7.125,0 C5.6765625,0 4.5,1.17796875 4.5,2.625 L4.5,17.625 C4.5,18.2446875 3.99515625,18.75 3.375,18.75 C2.75484375,18.75 2.25,18.24375 2.25,17.625 L2.25,3.75 C2.25,3.12890625 1.74609375,2.625 1.125,2.625 C0.50390625,2.625 0,3.12890625 0,3.75 L0,17.625 C0,19.4859375 1.5140625,21 3.375,21 L19.875,21 C22.1498437,21 24,19.1498437 24,16.875 L24,2.625 C24,1.17796875 22.8234375,0 21.375,0 Z M21.75,16.875 C21.75,17.9090625 20.9090625,18.75 19.875,18.75 L6.5578125,18.75 C6.6796875,18.3984375 6.75,18.01875 6.75,17.625 L6.75,2.625 C6.75,2.41846875 6.91846875,2.25 7.125,2.25 L21.375,2.25 C21.5815312,2.25 21.75,2.41846875 21.75,2.625 L21.75,16.875 Z M12.375,11.25 L9.375,11.25 C8.75625,11.25 8.25,11.75625 8.25,12.375 C8.25,12.99375 8.75625,13.5 9.375,13.5 L12.375,13.5 C12.9984375,13.5 13.5,12.9984375 13.5,12.375 C13.5,11.7515625 12.9984375,11.25 12.375,11.25 Z M19.125,11.25 L16.125,11.25 C15.50625,11.25 15,11.75625 15,12.375 C15,12.99375 15.50625,13.5 16.125,13.5 L19.125,13.5 C19.7460938,13.5 20.25,12.9960938 20.25,12.375 C20.25,11.7539062 19.7484375,11.25 19.125,11.25 Z M12.375,15 L9.375,15 C8.75390625,15 8.25,15.5039062 8.25,16.125 C8.25,16.7460938 8.75390625,17.25 9.375,17.25 L12.375,17.25 C12.9960938,17.25 13.5,16.7460938 13.5,16.125 C13.5,15.5039062 12.9984375,15 12.375,15 Z M19.125,15 L16.125,15 C15.50625,15 15,15.50625 15,16.125 C15,16.74375 15.5039062,17.25 16.125,17.25 L19.125,17.25 C19.7460938,17.25 20.25,16.7460938 20.25,16.125 C20.25,15.5039062 19.7484375,15 19.125,15 Z M18.75,3.75 L9.75,3.75 C8.92171875,3.75 8.25,4.42171875 8.25,5.25 L8.25,8.25 C8.25,9.07828125 8.92171875,9.75 9.75,9.75 L18.75,9.75 C19.5782812,9.75 20.25,9.07828125 20.25,8.25 L20.25,5.25 C20.25,4.4203125 19.5796875,3.75 18.75,3.75 Z" id="Shape"></path>
            </g>
        </g>
    </g>
</svg>