<?xml version="1.0" encoding="UTF-8"?>
<svg width="30px" height="24px" viewBox="0 0 30 24" version="1.1" xmlns="http://www.w3.org/2000/svg" xmlns:xlink="http://www.w3.org/1999/xlink">
    <title>card-account-details-outline</title>
    <g id="Symbols" stroke="none" stroke-width="1" fill="none" fill-rule="evenodd">
        <g id="Icons-/-32px-/-card-account-details-outline" transform="translate(-1.000000, -4.000000)" fill="#DB9800" fill-rule="nonzero">
            <g id="card-account-details-outline" transform="translate(1.000000, 4.500000)">
                <path d="M27.5,0 L2.5,0 C1.1375,0.0511111111 0.05,1.16277778 0,2.55555556 L0,20.4444444 C0.05,21.8372222 1.1375,22.9488889 2.5,23 L27.5,23 C28.8625,22.9488889 29.95,21.8372222 30,20.4444444 L30,2.55555556 C29.95,1.16277778 28.8625,0.0511111111 27.5,0 M27.5,20.4444444 L2.5,20.4444444 L2.5,2.55555556 L27.5,2.55555556 L27.5,20.4444444 M17.5,17.8888889 L17.5,16.2916667 C17.5,14.1705556 13.325,13.0972222 11.25,13.0972222 C9.175,13.0972222 5,14.1705556 5,16.2916667 L5,17.8888889 L17.5,17.8888889 M11.25,5.11111111 C9.52411016,5.11111111 8.125,6.5413126 8.125,8.30555556 C8.125,10.0697985 9.52411016,11.5 11.25,11.5 C12.0788015,11.5 12.8736575,11.1634434 13.4597087,10.5643689 C14.0457599,9.96529434 14.375,9.1527749 14.375,8.30555556 C14.375,7.45833621 14.0457599,6.64581677 13.4597087,6.04674223 C12.8736575,5.44766768 12.0788015,5.11111111 11.25,5.11111111 M17.5,5.11111111 L17.5,6.38888889 L25,6.38888889 L25,5.11111111 L17.5,5.11111111 M17.5,7.66666667 L17.5,8.94444444 L25,8.94444444 L25,7.66666667 L17.5,7.66666667 M17.5,10.2222222 L17.5,11.5 L22.5,11.5 L22.5,10.2222222 L17.5,10.2222222" id="Shape"></path>
            </g>
        </g>
    </g>
</svg>